<svg width="32" height="32" viewBox="0 0 32 32" fill="none" xmlns="http://www.w3.org/2000/svg">
<path d="M13.2473 1.06046C14.9507 0.0770158 17.0493 0.0770161 18.7527 1.06046L27.5619 6.14644C29.2652 7.12988 30.3145 8.94736 30.3145 10.9142V21.0862C30.3145 23.0531 29.2652 24.8706 27.5619 25.854L18.7527 30.94C17.0493 31.9234 14.9507 31.9234 13.2473 30.94L4.43811 25.854C2.73474 24.8706 1.68542 23.0531 1.68542 21.0862V10.9142C1.68542 8.94736 2.73474 7.12988 4.43811 6.14644L13.2473 1.06046Z" fill="url(#paint0_linear_2232_3865)"/>
<mask id="mask0_2232_3865" style="mask-type:alpha" maskUnits="userSpaceOnUse" x="1" y="0" width="30" height="32">
<path d="M13.2473 1.06046C14.9507 0.0770158 17.0493 0.0770161 18.7527 1.06046L27.5619 6.14644C29.2652 7.12988 30.3145 8.94736 30.3145 10.9142V21.0862C30.3145 23.0531 29.2652 24.8706 27.5619 25.854L18.7527 30.94C17.0493 31.9234 14.9507 31.9234 13.2473 30.94L4.43811 25.854C2.73474 24.8706 1.68542 23.0531 1.68542 21.0862V10.9142C1.68542 8.94736 2.73474 7.12988 4.43811 6.14644L13.2473 1.06046Z" fill="#83E1E1"/>
</mask>
<g mask="url(#mask0_2232_3865)">
<path d="M6.28539 12.4727L-3.16131 18.3615L-11.3453 23.8612C-11.6497 24.0658 -11.8323 24.4084 -11.8323 24.7751V50.8604C-11.8323 51.4685 -11.3393 51.9615 -10.7312 51.9615H43.7376C44.3457 51.9615 44.8387 51.4685 44.8387 50.8604V27.5608C44.8387 27.1836 44.6456 26.8327 44.327 26.6308L16.7542 9.15618C16.3188 8.88025 15.7502 8.9433 15.3859 9.30793L10.636 14.0614C10.206 14.4918 9.50836 14.4918 9.07829 14.0614L7.64674 12.6288C7.28456 12.2663 6.72022 12.2016 6.28539 12.4727Z" fill="url(#paint1_linear_2232_3865)"/>
<path d="M6.62637 15L1 19.5333H5.30769C5.72967 19.5333 7.30037 21.8444 8.03297 23L9 17.5778L6.62637 15Z" fill="url(#paint2_linear_2232_3865)"/>
<path d="M13.0193 17L16 12L28 19L25.2516 20.2191L18.5 20L12 26L15 19L13.0193 17Z" fill="url(#paint3_linear_2232_3865)"/>
</g>
<defs>
<linearGradient id="paint0_linear_2232_3865" x1="16" y1="-0.528809" x2="16" y2="32.5293" gradientUnits="userSpaceOnUse">
<stop stop-color="#22AFFF"/>
<stop offset="1" stop-color="#1D41FF"/>
</linearGradient>
<linearGradient id="paint1_linear_2232_3865" x1="16.5032" y1="8.68408" x2="16.5032" y2="51.9615" gradientUnits="userSpaceOnUse">
<stop stop-color="#1B3573"/>
<stop offset="1" stop-color="#131E39"/>
</linearGradient>
<linearGradient id="paint2_linear_2232_3865" x1="8.5" y1="16" x2="-3" y2="33" gradientUnits="userSpaceOnUse">
<stop stop-color="#FCFCFD"/>
<stop offset="1" stop-color="white" stop-opacity="0"/>
</linearGradient>
<linearGradient id="paint3_linear_2232_3865" x1="16.5" y1="12" x2="27" y2="50" gradientUnits="userSpaceOnUse">
<stop stop-color="white"/>
<stop offset="1" stop-color="#192E5F"/>
</linearGradient>
</defs>
</svg>
